<?xml version="1.0" encoding="utf-8"?>
<!-- Generator: Adobe Illustrator 17.0.0, SVG Export Plug-In . SVG Version: 6.00 Build 0)  -->
<!DOCTYPE svg PUBLIC "-//W3C//DTD SVG 1.1//EN" "http://www.w3.org/Graphics/SVG/1.1/DTD/svg11.dtd">
<svg version="1.1" id="Layer_1" xmlns="http://www.w3.org/2000/svg" xmlns:xlink="http://www.w3.org/1999/xlink" x="0px" y="0px"
	 width="300px" height="200px" viewBox="0 0 300 200" enable-background="new 0 0 300 200" xml:space="preserve">
<path fill="#E50D08" stroke="#000000" stroke-width="7" stroke-miterlimit="10" d="M195.212,177.569l28.715-19.041
	c10.998-0.787,22.729-1.78,32.94-6.417c32.544-14.778,47.064-54.451,32.285-86.996c-14.778-32.544-54.062-47.383-86.607-32.605
	s-48.483,52.487-33.705,85.031c4.602,10.134,12.961,19.212,16.705,23.479L195.212,177.569z"/>
<path d="M233.651,85.628c0,0,33.164-3.406,51.826,18.335c0,0-12.705,29.211-40.554,19.358S233.651,85.628,233.651,85.628z"/>
<path fill="#552BDF" stroke="#000000" stroke-width="7" stroke-miterlimit="10" d="M104.834,176.711l8.633-33.379
	c7.658-7.943,15.725-16.53,20.222-26.811c14.334-32.769-1.4-72.006-34.169-86.34c-32.769-14.334-71.931,0.902-86.264,33.671
	s-0.971,71.494,31.798,85.828c10.203,4.463,22.497,5.628,28.138,6.298L104.834,176.711z"/>
<path fill="none" stroke="#000000" stroke-miterlimit="10" d="M61.736,90.417"/>
<path d="M54.5,74.916c2.598,0.448,4.052,3.505,5.136,6.126c2.804,6.779-0.419,14.547-7.198,17.351
	c-6.779,2.804-14.547-0.419-17.351-7.198c-1.17-2.828-2.445-6.461-0.541-8.57C38.13,78.656,49.23,74.006,54.5,74.916z"/>
<path d="M95.722,57.867c2.598,0.448,4.052,3.505,5.136,6.126c2.804,6.779-0.419,14.547-7.198,17.351s-14.547-0.419-17.351-7.198
	c-1.17-2.828-2.445-6.461-0.541-8.57C79.351,61.607,90.452,56.957,95.722,57.867z"/>
<path d="M49.243,116.606c0,0,45.843,34.371,62.258-25.749"/>
<path d="M229.133,84.03c0,0-23.644-23.503-51.826-18.335c0,0-8.491,30.702,19.358,40.554S229.133,84.03,229.133,84.03z"/>
<path fill="#B04BCC" stroke="#000000" stroke-width="7" stroke-miterlimit="10" d="M146.296,183.014l19.954-26.509
	c9.732-4.247,20.063-8.916,27.844-16.405c24.799-23.869,25.239-64.55,1.369-89.349c-23.869-24.799-64.299-25.654-89.099-1.784
	s-27.159,63.222-3.289,88.022c7.432,7.722,17.937,13.279,22.707,15.95L146.296,183.014z"/>
<path d="M151.663,87.2c0,0,29.015-13.744,52.939,0c0,0-2.152,30.6-30.6,30.6S151.663,87.2,151.663,87.2z"/>
<path d="M147.048,87.2c0,0-29.015-13.744-52.939,0c0,0,2.152,30.6,30.6,30.6S147.048,87.2,147.048,87.2z"/>
<path fill="none" stroke="#000000" stroke-miterlimit="10" d="M139.708,90.423"/>
<path fill="none" stroke="#000000" stroke-miterlimit="10" d="M237.228,121.798"/>
</svg>
