<?xml version="1.0" standalone="no"?>
<!-- Generator: Adobe Illustrator 17.0.0, SVG Export Plug-In . SVG Version: 6.00 Build 0)  -->
<!DOCTYPE svg PUBLIC "-//W3C//DTD SVG 1.1//EN" "http://www.w3.org/Graphics/SVG/1.1/DTD/svg11.dtd">
<svg version="1.1" id="Layer_1" xmlns="http://www.w3.org/2000/svg" xmlns:xlink="http://www.w3.org/1999/xlink" x="0px" y="0px"
	 width="36px" height="37px" viewBox="0 0 36 37" enable-background="new 0 0 36 37" xml:space="preserve">
<path fill="#DC5EFF" stroke="#FFFFFF" stroke-width="1.5" stroke-miterlimit="10" d="M28.368,22.305
	c1.047-3.707,0.168-7.857-2.69-10.826c-0.578-0.6-1.209-1.115-1.874-1.559c-0.624-3.24-2.646-5.981-5.412-7.572
	c1.636-0.938,3.526-1.482,5.547-1.482c6.174,0,11.179,5.005,11.179,11.179c0,0,0.4,2.986-1.353,5.332l1.353,5.846l-5.868-1.34
	c0,0-4.718,1.171-6.455-0.261"/>
<path fill="#C654E5" stroke="#FFFFFF" stroke-width="1.5" stroke-miterlimit="10" d="M3.008,17.377l-1.353,5.846l5.218-1.192
	c-0.998-3.781,0.013-7.966,3.033-10.873c3.848-3.704,9.635-4.082,13.899-1.239c-0.993-5.157-5.525-9.054-10.971-9.054
	c-6.174,0-11.179,5.005-11.179,11.179C1.654,12.044,1.253,13.895,3.008,17.377z"/>
<path fill="#B04BCC" stroke="#FFFFFF" stroke-width="2" stroke-miterlimit="10" d="M17.213,35.202L14,29.844v-0.037
	c-2-0.479-3.206-1.476-4.54-2.861C5.179,22.498,5.369,15.44,9.817,11.159S21.4,7.03,25.682,11.479
	c4.281,4.448,4.144,11.745-0.304,16.026c-1.396,1.343-3.045,2.181-4.79,2.943L17.213,35.202z"/>
</svg>
