<!-- Generator: Adobe Illustrator 17.0.0, SVG Export Plug-In . SVG Version: 6.00 Build 0)  -->
<!DOCTYPE svg PUBLIC "-//W3C//DTD SVG 1.1//EN" "http://www.w3.org/Graphics/SVG/1.1/DTD/svg11.dtd">
<svg version="1.1" id="Layer_1" xmlns="http://www.w3.org/2000/svg" xmlns:xlink="http://www.w3.org/1999/xlink" x="0px" y="0px"
	 width="40px" height="40px" viewBox="0 0 40 40" enable-background="new 0 0 40 40" xml:space="preserve">
<rect fill="#FF0E09" width="40" height="40"/>
<polygon fill="#FF5954" points="0,0 0,26 40,15.028 40,0 "/>
<polygon opacity="0.2" fill="#FFFFFF" points="0,0 0,26 40,15.028 40,0 "/>
<path fill="#E50D08" stroke="#FFFFFF" stroke-width="2" stroke-miterlimit="10" d="M18.967,35.999l4.183-5.558
	c2.04-0.89,4.206-1.869,5.837-3.439c5.199-5.004,5.291-13.533,0.287-18.732c-5.004-5.199-13.48-5.378-18.679-0.374
	S4.902,21.151,9.906,26.35c1.558,1.619,3.76,2.784,4.76,3.344L18.967,35.999z"/>
<path d="M20.093,15.912c0,0,6.083-2.881,11.099,0c0,0-0.451,6.415-6.415,6.415S20.093,15.912,20.093,15.912z"/>
<path d="M19.125,15.912c0,0-6.083-2.881-11.099,0c0,0,0.451,6.415,6.415,6.415S19.125,15.912,19.125,15.912z"/>
<path fill="none" stroke="#000000" stroke-miterlimit="10" d="M17.586,16.587"/>
</svg>
